<?xml version="1.0" encoding="UTF-8"?>
<svg xmlns="http://www.w3.org/2000/svg" xmlns:xlink="http://www.w3.org/1999/xlink" viewBox="0 0 15 15" width="20px" height="20px">
<g id="surface14978553">
<path style=" stroke:none;fill-rule:nonzero;fill:rgb(100%,100%,100%);fill-opacity:1;" d="M 12.429688 5.273438 C 12.402344 5.238281 12.386719 5.191406 12.386719 5.148438 C 11.953125 4.382812 11.925781 3.449219 11.492188 2.683594 C 10.273438 3.371094 9.4375 4.589844 8.640625 5.703125 C 8.160156 6.375 7.726562 7.0625 7.332031 7.789062 C 6.933594 8.515625 6.546875 9.25 6.101562 9.949219 C 6.039062 10.050781 5.871094 10.097656 5.800781 9.96875 C 5.589844 9.582031 5.351562 9.203125 5.082031 8.851562 C 4.847656 8.550781 4.578125 8.28125 4.339844 7.984375 C 3.96875 7.523438 3.570312 6.972656 3.054688 6.652344 C 2.867188 7.269531 2.644531 7.878906 2.546875 8.515625 C 3.269531 8.984375 3.820312 9.65625 4.351562 10.320312 C 4.972656 11.101562 5.613281 11.84375 6.3125 12.558594 C 6.761719 11.96875 7.074219 11.28125 7.445312 10.644531 C 7.890625 9.890625 8.40625 9.195312 8.953125 8.515625 C 9.5 7.835938 10.132812 7.238281 10.769531 6.644531 C 11.070312 6.367188 11.421875 6.136719 11.738281 5.882812 C 11.980469 5.691406 12.214844 5.492188 12.433594 5.277344 C 12.433594 5.28125 12.433594 5.277344 12.429688 5.273438 Z M 12.429688 5.273438 "/>
<path style=" stroke:none;fill-rule:nonzero;fill:rgb(0%,0%,0%);fill-opacity:1;" d="M 12.78125 4.988281 L 12.699219 4.988281 C 12.21875 4.179688 12.222656 3.15625 11.703125 2.355469 C 11.644531 2.269531 11.542969 2.265625 11.457031 2.308594 C 10.121094 2.984375 9.226562 4.292969 8.375 5.476562 C 7.890625 6.15625 7.449219 6.851562 7.046875 7.585938 C 6.6875 8.238281 6.339844 8.898438 5.949219 9.535156 C 5.773438 9.230469 5.582031 8.9375 5.367188 8.660156 C 5.128906 8.34375 4.847656 8.066406 4.597656 7.757812 C 4.152344 7.210938 3.675781 6.558594 3.023438 6.25 C 2.914062 6.195312 2.808594 6.265625 2.773438 6.371094 C 2.574219 7.066406 2.3125 7.75 2.203125 8.464844 C 2.203125 8.46875 2.203125 8.46875 2.203125 8.476562 C 2.144531 8.554688 2.140625 8.683594 2.25 8.75 C 3.027344 9.207031 3.597656 9.945312 4.152344 10.644531 C 4.796875 11.453125 5.476562 12.226562 6.207031 12.960938 C 6.277344 13.027344 6.394531 13.015625 6.453125 12.945312 C 6.957031 12.34375 7.296875 11.628906 7.679688 10.949219 C 8.109375 10.1875 8.617188 9.472656 9.175781 8.804688 C 9.738281 8.132812 10.347656 7.523438 10.988281 6.929688 C 11.292969 6.644531 11.652344 6.410156 11.980469 6.148438 C 12.242188 5.9375 12.5 5.71875 12.738281 5.480469 C 12.804688 5.464844 12.863281 5.417969 12.875 5.34375 C 12.890625 5.324219 12.90625 5.304688 12.925781 5.289062 C 13.039062 5.160156 12.925781 4.988281 12.78125 4.988281 Z M 11.738281 5.890625 C 11.421875 6.144531 11.070312 6.371094 10.769531 6.652344 C 10.132812 7.242188 9.5 7.84375 8.953125 8.523438 C 8.40625 9.203125 7.890625 9.894531 7.449219 10.648438 C 7.074219 11.289062 6.761719 11.972656 6.3125 12.5625 C 5.613281 11.855469 4.96875 11.105469 4.351562 10.328125 C 3.820312 9.664062 3.265625 8.984375 2.550781 8.523438 C 2.644531 7.882812 2.867188 7.273438 3.054688 6.660156 C 3.570312 6.980469 3.96875 7.53125 4.339844 7.988281 C 4.578125 8.285156 4.847656 8.554688 5.082031 8.855469 C 5.351562 9.207031 5.589844 9.585938 5.800781 9.976562 C 5.871094 10.105469 6.039062 10.054688 6.101562 9.957031 C 6.550781 9.253906 6.933594 8.519531 7.332031 7.792969 C 7.730469 7.070312 8.160156 6.382812 8.640625 5.710938 C 9.4375 4.597656 10.273438 3.371094 11.492188 2.6875 C 11.925781 3.453125 11.953125 4.390625 12.386719 5.152344 C 12.386719 5.195312 12.402344 5.242188 12.429688 5.277344 C 12.429688 5.28125 12.433594 5.285156 12.433594 5.285156 C 12.214844 5.496094 11.980469 5.695312 11.738281 5.886719 Z M 11.738281 5.890625 "/>
</g>
</svg>
